# AST/ASF file generated using VICON BodyLanguage
# -----------------------------------------------
:version 1.10
:name VICON
:units
  mass 1.0
  length 0.45
  angle deg
:documentation
   .ast/.asf automatically generated from VICON data using
   VICON BodyBuilder and BodyLanguage model FoxedUp or BRILLIANT.MOD
:root
   order TX TY TZ RX RY RZ
   axis XYZ
   position 0 0 0  
   orientation 0 0 0 
:bonedata
  begin
     id 1 
     name lhipjoint
     direction 0.756833 -0.6125 0.228138 
     length 2.53827 
     axis 0 0 0  XYZ
  end
  begin
     id 2 
     name lfemur
     direction 0.34202 -0.939693 0  
     length 6.51821  
     axis 0 0 20  XYZ
    dof rx ry rz
    limits (-160.0 20.0)
           (-70.0 70.0)
           (-60.0 70.0)
  end
  begin
     id 3 
     name ltibia
     direction 0.34202 -0.939693 0   
     length 6.99902   
     axis 0 0 20   XYZ
    dof rx
    limits (-10.0 170.0)
  end
  begin
     id 4 
     name lfoot
     direction 0.0951515 -0.261427 0.960522   
     length 1.92102   
     axis -90 7.62852e-016 20   XYZ
    dof rx rz
    limits (-45.0 90.0)
           (-70.0 20.0)
  end
  begin
     id 5 
     name ltoes
     direction 1.53539e-011 -4.21781e-011 1   
     length 0.964376   
     axis -90 7.62852e-016 20   XYZ
    dof rx
    limits (-90.0 20.0)
  end
  begin
     id 6 
     name rhipjoint
     direction -0.752153 -0.617542 0.230017   
     length 2.51754  
     axis 0 0 0  XYZ 
  end
  begin
     id 7 
     name rfemur
     direction -0.34202 -0.939693 0   
     length 6.82377   
     axis 0 0 -20   XYZ
    dof rx ry rz
    limits (-160.0 20.0)
           (-70.0 70.0)
           (-70.0 60.0)
  end
  begin
     id 8 
     name rtibia
     direction -0.34202 -0.939693 0   
     length 6.98689   
     axis 0 0 -20   XYZ
    dof rx
    limits (-10.0 170.0)
 end
 begin
     id 9 
     name rfoot
     direction -0.0900426 -0.24739 0.964723   
     length 2.03215  
     axis -90 -7.62852e-016 -20   XYZ
    dof rx rz
    limits (-45.0 90.0)
           (-20.0 70.0)
  end
  begin
     id 10 
     name rtoes
     direction -1.53466e-011 -4.22206e-011 1   
     length 1.0197   
     axis -90 -7.62852e-016 -20   XYZ
    dof rx
    limits (-90.0 20.0)
  end
  begin
     id 11 
     name lowerback
     direction 0.0184183 0.995705 -0.0907278   
     length 2.019   
     axis 0 0 0   XYZ
    dof rx ry rz
    limits (-20.0 45.0)
           (-30.0 30.0)
           (-30.0 30.0)
  end
  begin
     id 12 
     name upperback
     direction 0.00281055 0.998777 0.0493607   
     length 1.99623   
     axis 0 0 0   XYZ
    dof rx ry rz
    limits (-20.0 45.0)
           (-30.0 30.0)
           (-30.0 30.0)
  end
  begin
     id 13 
     name thorax
     direction -0.00665507 0.995706 0.092331   
     length 2.02811   
     axis 0 0 0   XYZ
    dof rx ry rz
    limits (-20.0 45.0)
           (-30.0 30.0)
           (-30.0 30.0)
  end
  begin
     id 14 
     name lowerneck
     direction -0.0960965 0.994358 0.0449225   
     length 1.71265   
     axis 0 0 0   XYZ
    dof rx ry rz
    limits (-20.0 45.0)
           (-30.0 30.0)
           (-30.0 30.0)
  end
  begin
     id 15 
     name upperneck
     direction 0.13642 0.985357 -0.102278   
     length 1.73016   
     axis 0 0 0   XYZ
    dof rx ry rz
    limits (-20.0 45.0)
           (-30.0 30.0)
           (-30.0 30.0)
  end
  begin
     id 16
     name head
     direction 0.0556079 0.997632 -0.040479  
     length 1.74275  
     axis 0 0 0   XYZ
    dof rx ry rz
    limits (-20.0 45.0)
           (-30.0 30.0)
           (-30.0 30.0)
  end
  begin
     id 17 
     name lclavicle
     direction 0.90877 0.417247 -0.00652364  
     length 3.25514  
     axis 0 0 0   XYZ
    dof ry rz
    limits (-20.0 10.0)
           (0.0 20.0)
  end
  begin
     id 18 
     name lhumerus
     direction 1 -4.48949e-011 8.31417e-028   
     length 4.84834   
     axis 180 -30 -90   XYZ
    dof rx ry rz
    limits (-60.0 90.0)
           (-90.0 90.0)
           (-90.0 90.0)
  end
  begin
     id 19
     name lradius
     direction 1 -4.48984e-011 3.45616e-027   
     length 2.99713   
     axis 180 -30 -90   XYZ
    dof rx
    limits (-10.0 170.0)
  end
  begin
     id 20
     name lwrist
     direction 1 -4.4891e-011 4.0479e-027   
     length 1.49857   
     axis -1.61768e-015 90 90   XYZ
    dof ry
    limits (-180.0 0.0)
 end
  begin
     id 21 
     name lhand
     direction 1 -4.49025e-011 8.0958e-027   
     length 0.693987   
     axis -5.16581e-015 90 90   XYZ
    dof rx rz
    limits (-90.0 90.0)
           (-45.0 45.0)
  end
  begin
     id 22 
     name lfingers
     direction 1 -4.4888e-011 1.61916e-026   
     length 0.55951   
     axis -1.03316e-014 90 90   XYZ
    dof rx
    limits (0.0 90.0)
  end
  begin
     id 23
     name lthumb
     direction 0.707107 -6.3493e-011 0.707107   
     length 0.803348   
     axis -90 45 2.85299e-015   XYZ
    dof rx rz
    limits (-45.0 45.0)
           (-45.0 45.0)
  end
  begin
     id 24 
     name rclavicle
     direction -0.906655 0.41906 0.0486307   
     length 3.3311  
     axis 0 0 0   XYZ 
    dof ry rz
    limits (-10.0 20.0)
           (-20.0 0.0)
  end
  begin
     id 25 
     name rhumerus
     direction -1 -4.48959e-011 6.37764e-018  
     length 4.93457   
     axis 180 30 90   XYZ
    dof rx ry rz
    limits (-90.0 60.0)
           (-90.0 90.0)
           (-90.0 90.0)
  end
  begin
     id 26 
     name rradius
     direction -1 -4.48957e-011 2.20847e-027   
     length 3.3443   
     axis 180 30 90   XYZ
    dof rx
    limits (-10.0 170.0)
  end
  begin
     id 27 
     name rwrist
     direction -1 -4.49008e-011 4.0479e-027   
     length 1.67215   
     axis -1.61768e-015 -90 -90   XYZ
    dof ry
    limits (-180.0 0.0)
  end
  begin
     id 28
     name rhand
     direction -1 -4.49013e-011 8.0958e-027   
     length 0.677363   
     axis -5.16581e-015 -90 -90   XYZ
    dof rx rz
    limits (-90.0 90.0)
           (-45.0 45.0)
  end
  begin
     id 29
     name rfingers
     direction -1 -4.48832e-011 1.61916e-026   
     length 0.546107   
     axis -1.03316e-014 -90 -90   XYZ
    dof rx
    limits (0.0 90.0)
  end
  begin
     id 30
     name rthumb
     direction -0.707107 -6.34895e-011 0.707107   
     length 0.784104   
     axis -90 -45 -2.85299e-015   XYZ
    dof rx rz
    limits (-45.0 45.0)
           (-45.0 45.0)
  end
:hierarchy
  begin
    root lhipjoint rhipjoint lowerback
    lhipjoint lfemur
    lfemur ltibia
    ltibia lfoot
    lfoot ltoes
    rhipjoint rfemur
    rfemur rtibia
    rtibia rfoot
    rfoot rtoes
    lowerback upperback
    upperback thorax
    thorax lowerneck lclavicle rclavicle
    lowerneck upperneck
    upperneck head
    lclavicle lhumerus
    lhumerus lradius
    lradius lwrist
    lwrist lhand lthumb
    lhand lfingers
    rclavicle rhumerus
    rhumerus rradius
    rradius rwrist
    rwrist rhand rthumb
    rhand rfingers
  end

#!OML:ASF H:\Terrain\Patient Classification 1\junglegym\FridayTest\junglegym.ASF
:FULLY-SPECIFIED
:DEGREES
283
root -6.55116 16.4608 0.509188 255.781 -87.8005 -281.069
lowerback 22.8441 -0.170753 -0.478893
upperback -2.15288 -0.423787 -0.233418
thorax -15.4113 -0.172943 0.15896
lowerneck 13.3945 4.77484 -15.8736
upperneck 33.95 0.0649556 10.7463
head 8.45668 -2.25542 6.46874
rclavicle 6.06293e-015 6.55989e-015
rhumerus 85.9751 -3.65217 -75.7651
rradius 46.3691
rwrist 22.3845
rhand 1.49952 24.836
rfingers 7.12502
rthumb 27.0259 -3.25039
lclavicle 6.06293e-015 6.55989e-015
lhumerus 84.8169 9.19464 66.2912
lradius 43.8846
lwrist -34.5902
lhand -2.30613 23.6972
lfingers 7.12502
lthumb 23.3797 52.2972
rfemur -54.7645 20.8303 15.9943
rtibia 35.649
rfoot -3.92081 -15.8378
rtoes 44.8674
lfemur -53.4182 -20.1374 -3.56883
ltibia 26.1536
lfoot -3.4469 20.1246
ltoes 7.26311
284
root -6.8786 16.4823 0.519534 261.344 -87.3086 -288.142
lowerback 23.1603 -0.192165 -0.778285
upperback -2.16404 -0.571901 -0.42545
thorax -15.6101 -0.224783 0.163697
lowerneck 13.7372 4.79245 -15.7353
upperneck 33.8649 0.053514 10.6454
head 8.37796 -2.27075 6.3979
rclavicle 9.14409e-015 -1.64991e-014
rhumerus 85.3983 -3.52763 -75.8686
rradius 46.8278
rwrist 22.2431
rhand 2.12591 24.5767
rfingers 7.12502
rthumb 27.625 -3.41531
lclavicle 9.14409e-015 -1.64991e-014
lhumerus 84.0249 8.80724 66.1085
lradius 44.8247
lwrist -34.5817
lhand -1.55604 24.2912
lfingers 7.12502
lthumb 24.0991 52.7977
rfemur -53.4764 18.5029 17.2855
rtibia 36.0063
rfoot -3.1517 -14.2104
rtoes 45.1085
lfemur -52.2216 -20.8438 -4.49292
ltibia 25.7426
lfoot -3.35184 20.4985
ltoes 7.71537
285
root -7.21004 16.5043 0.524986 266.326 -86.9324 -294.186
lowerback 22.9669 -0.240284 -0.927195
upperback -2.19047 -0.708891 -0.637672
thorax -15.5286 -0.286565 0.0520412
lowerneck 13.9647 4.7341 -15.4181
upperneck 33.8144 -0.022842 10.5301
head 8.33781 -2.29138 6.29288
rclavicle -7.45443e-015 -2.00773e-014
rhumerus 85.0955 -3.65027 -75.6404
rradius 47.3491
rwrist 21.5757
rhand 2.83279 23.4813
rfingers 7.12502
rthumb 28.3008 -4.40056
lclavicle -7.45443e-015 -2.00773e-014
lhumerus 83.3875 8.65852 65.5656
lradius 45.7763
lwrist -34.0476
lhand -0.951072 24.6647
lfingers 7.12502
lthumb 24.6791 53.0932
rfemur -53.1808 18.1256 16.9422
rtibia 36.4527
rfoot -3.10514 -14.019
rtoes 47.394
lfemur -51.5647 -21.4509 -5.09278
ltibia 25.2555
lfoot -3.82129 21.3133
ltoes 12.7362
286
root -7.54921 16.5266 0.521246 267.735 -87.0082 -296.115
lowerback 22.3128 -0.240735 -0.680804
upperback -2.30897 -0.665895 -0.877011
thorax -15.2914 -0.302983 -0.383308
lowerneck 13.9676 4.54093 -14.832
upperneck 33.9654 -0.302491 10.6312
head 8.42414 -2.36544 6.22902
rclavicle -1.19271e-015 1.37161e-014
rhumerus 84.7967 -4.30755 -75.3515
rradius 47.8136
rwrist 20.9053
rhand 3.25251 22.4844
rfingers 7.12502
rthumb 28.7018 -5.33027
lclavicle -1.19271e-015 1.37161e-014
lhumerus 83.0043 8.52667 64.5453
lradius 46.5618
lwrist -33.1443
lhand -0.629101 24.4698
lfingers 7.12502
lthumb 24.9877 52.8557
rfemur -53.2342 17.1325 17.5756
rtibia 36.7231
rfoot -2.12564 -13.1648
rtoes 48.2146
lfemur -51.5036 -21.6134 -4.87864
ltibia 24.95
lfoot -3.51317 21.665
ltoes 14.0172
287
root -7.88964 16.5415 0.523589 261.661 -87.5519 -291.215
lowerback 22.1922 -0.214243 -0.0410251
upperback -2.11717 -0.454762 -0.887392
thorax -14.9943 -0.263722 -0.834145
lowerneck 13.8448 4.36753 -14.5384
upperneck 33.9616 -0.515108 10.7121
head 8.46539 -2.42309 6.20557
rclavicle 2.08724e-015 -2.18663e-014
rhumerus 84.7221 -4.789 -75.3147
rradius 48.1121
rwrist 20.7204
rhand 4.61786 23.2127
rfingers 7.12502
rthumb 30.0054 -4.3736
lclavicle 2.08724e-015 -2.18663e-014
lhumerus 82.8951 8.56299 63.9181
lradius 47.1356
lwrist -32.5831
lhand -0.564281 23.6992
lfingers 7.12502
lthumb 25.0498 52.0765
rfemur -52.4999 17.746 18.2038
rtibia 36.7417
rfoot -2.11376 -13.7582
rtoes 46.8535
lfemur -50.7406 -21.5282 -4.39147
ltibia 24.9914
lfoot -2.95909 20.9821
ltoes 14.6164
